<svg width="40" height="40" viewBox="0 0 40 40" fill="none" xmlns="http://www.w3.org/2000/svg">
<path d="M38.0875 5.7125H36.1875V3.8125H34.275V1.9H32.375V0H3.8V7.625H5.7125V9.525H7.6125V7.625H30.475V9.525H32.375V28.575H30.475V30.475H28.5625V32.375H3.8V30.475H1.9V32.375H0V40H1.9V34.2875H26.6625V40H40V7.625H38.0875V5.7125ZM7.6125 5.7125H5.7125V1.9H7.6125V5.7125ZM11.425 5.7125H9.5125V1.9H11.425V5.7125ZM28.5625 5.7125H13.325V1.9H28.5625V5.7125ZM38.0875 19.05H36.1875V9.525H34.275V7.625H32.375V5.7125H30.475V3.8125H32.375V5.7125H34.275V7.625H36.1875V9.525H38.0875V19.05Z" fill="#474164"/>
<path d="M24.75 19.05H26.6625V20.95H24.75V19.05ZM20.95 28.5751H26.6625V30.475H20.95V28.5751ZM22.85 15.2375H24.75V17.1375H22.85V15.2375ZM24.75 40V36.1876H19.0375V40H20.95V38.1H22.85V40H24.75ZM17.1375 20.95H24.75V22.8626H17.1375V20.95ZM17.1375 15.2375H19.0375V17.1375H17.1375V15.2375ZM15.2375 19.05H17.1375V20.95H15.2375V19.05ZM13.325 28.5751H15.2375V30.475H13.325V28.5751Z" fill="#474164"/>
<path d="M30.475 26.6624V11.4249H11.425V26.6624H30.475ZM13.325 13.3374H28.5625V24.7624H13.325V13.3374ZM9.51255 28.5749H11.425V30.4749H9.51255V28.5749ZM7.61255 9.5249H9.51255V26.6624H7.61255V9.5249ZM5.71255 26.6624H7.61255V28.5749H5.71255V26.6624ZM3.80005 28.5749H5.71255V30.4749H3.80005V28.5749Z" fill="#474164"/>
</svg>
