<svg width="40" height="41" viewBox="0 0 40 41" fill="none" xmlns="http://www.w3.org/2000/svg">
<g clip-path="url(#clip0_77_18)">
<path d="M37.1437 1.97144H35.2437V28.6464H8.58118V30.5464H35.2437V36.2589H37.1437V1.97144Z" fill="#474164"/>
<path d="M18.1062 36.259H35.2437V38.1715H18.1062V36.259Z" fill="#474164"/>
<path d="M20.0062 22.9341H25.7187V24.8341H20.0062V22.9341Z" fill="#474164"/>
<path d="M16.1937 40.0715V34.359H33.3437V32.459H10.4812V34.359H12.3812V38.1715H14.2937V40.0715H16.1937Z" fill="#474164"/>
<path d="M16.1937 19.1216H29.5312V21.0216H16.1937V19.1216Z" fill="#474164"/>
<path d="M18.1062 13.4089H20.0062V15.3089H21.9062V17.2214H23.8187V15.3089H25.7187V13.4089H27.6187V11.4964H29.5312V7.69644H27.6187V5.78394H23.8187V7.69644H21.9062V5.78394H18.1062V7.69644H16.1937V11.4964H18.1062V13.4089Z" fill="#474164"/>
<path d="M8.58118 3.88403H10.4812V26.734H8.58118V3.88403Z" fill="#474164"/>
<path d="M6.6687 0.0715332H35.2437V1.97153H6.6687V0.0715332Z" fill="#474164"/>
<path d="M6.6687 36.259H10.4812V38.1715H6.6687V36.259Z" fill="#474164"/>
<path d="M6.6687 30.5466H8.5812V32.4591H6.6687V30.5466Z" fill="#474164"/>
<path d="M4.76868 1.97144H6.66868V3.88394H4.76868V1.97144Z" fill="#474164"/>
<path d="M4.7687 3.88403H2.8562V34.359H4.7687V36.259H6.6687V32.459H4.7687V3.88403Z" fill="#474164"/>
</g>
<defs>
<clipPath id="clip0_77_18">
<rect width="40" height="40" fill="white" transform="translate(0 0.0715332)"/>
</clipPath>
</defs>
</svg>
