<svg width="40" height="40" viewBox="0 0 40 40" fill="none" xmlns="http://www.w3.org/2000/svg">
<path d="M38.0999 11.425H36.1875V17.15H28.575V19.05H30.4749V20.95H32.3875V19.05H34.2875V20.95H36.1875V19.05H38.0999V20.95H36.1875V22.8625H38.0999V24.7625H40V15.2375H38.0999V11.425Z" fill="#474164"/>
<path d="M36.1875 26.6624H34.2875V24.7624H32.3875V22.8624H30.4749V24.7624H28.575V22.8624H26.6625V20.9499H28.575V19.0499H26.6625V17.1499H24.7625V22.8624H22.8625V24.7624H17.1375V26.6624H22.8625V28.5749H24.7625V32.3874H26.6625V36.1874H24.7625V38.0999H28.575V36.1874H32.3875V34.2874H34.2875V32.3874H36.1875V28.5749H38.1V24.7624H36.1875V26.6624Z" fill="#474164"/>
<path d="M34.2875 22.8626H36.1876V24.7626H34.2875V22.8626ZM34.2875 7.6251H36.1876V11.4251H34.2875V7.6251ZM32.3875 20.9501H34.2875V22.8626H32.3875V20.9501ZM32.3875 5.7126H34.2875V7.6251H32.3875V5.7126ZM28.5751 20.9501H30.475V22.8626H28.5751V20.9501ZM28.5751 3.8126H32.3875V5.7126H28.5751V3.8126ZM24.7625 1.9126H28.5751V3.8126H24.7625V1.9126ZM22.8626 15.2376H24.7625V17.1501H22.8626V15.2376ZM15.2375 38.1001H24.7625V40.0001H15.2375V38.1001ZM22.8626 17.1501H17.1375V22.8626H22.8626V17.1501ZM20.95 20.9501H19.05V19.0501H20.95V20.9501Z" fill="#474164"/>
<path d="M17.1375 7.625H19.05V1.9125H24.7625V0H15.2375V1.9125H17.1375V7.625ZM15.2375 22.8625H17.1375V24.7625H15.2375V22.8625ZM11.425 36.1875H15.2375V38.1H11.425V36.1875ZM15.2375 17.15H17.1375V15.2375H22.8625V13.3375H20.95V7.625H19.05V13.3375H17.1375V11.425H15.2375V15.2375H11.425V17.15H13.3375V22.8625H15.2375V17.15ZM13.3375 7.625H15.2375V11.425H13.3375V7.625ZM11.425 30.475H15.2375V32.3875H11.425V30.475ZM7.625 34.2875H11.425V36.1875H7.625V34.2875ZM9.525 28.575H11.425V30.475H9.525V28.575ZM7.625 13.3375H11.425V15.2375H7.625V13.3375ZM11.425 7.625H13.3375V3.8125H15.2375V1.9125H11.425V3.8125H7.625V5.7125H11.425V7.625ZM7.625 24.7625H9.525V28.575H7.625V24.7625ZM5.7125 32.3875H7.625V34.2875H5.7125V32.3875ZM5.7125 5.7125H7.625V7.625H5.7125V5.7125ZM3.8125 28.575H5.7125V32.3875H3.8125V28.575ZM1.9 24.7625H3.8125V28.575H1.9V24.7625ZM3.8125 13.3375H7.625V11.425H5.7125V7.625H3.8125V11.425H1.9V15.2375H3.8125V13.3375ZM0 15.2375H1.9V24.7625H0V15.2375Z" fill="#474164"/>
</svg>
