<svg width="40" height="41" viewBox="0 0 40 41" fill="none" xmlns="http://www.w3.org/2000/svg">
<path d="M35.2375 24.834H37.1375V34.359H35.2375V24.834ZM33.3375 34.359H35.2375V36.259H33.3375V34.359ZM33.3375 22.934H35.2375V24.834H33.3375V22.934ZM31.425 36.259H33.3375V38.1715H31.425V36.259ZM31.425 21.0215H33.3375V22.934H31.425V21.0215ZM21.9 38.1715H31.425V40.0715H21.9V38.1715ZM23.8125 32.459H25.7125V34.359H23.8125V32.459ZM23.8125 7.69653V5.78403H25.7125V19.1215H20V22.934H21.9V21.0215H31.425V19.1215H27.625V7.69653H31.425V5.78403H33.3375V3.88403H35.2375V0.0715332H29.525V1.97153H27.625V3.88403H25.7125V1.97153H23.8125V0.0715332H14.2875V3.88403H16.1875V5.78403H21.9V7.69653H23.8125ZM20 36.259H21.9V38.1715H20V36.259ZM20 26.734H21.9V32.459H20V26.734Z" fill="#474164"/>
<path d="M20 7.69653H21.9V9.59653H20V7.69653ZM18.1 34.359V24.834H16.1875V34.359H8.57505V36.259H20V34.359H18.1ZM18.1 22.934H20V24.834H18.1V22.934ZM18.1 17.209H20V19.1215H18.1V17.209ZM18.1 9.59653H20V11.4965H18.1V9.59653ZM16.1875 11.4965H18.1V13.409H16.1875V11.4965ZM18.1 17.209V15.309H16.1875V13.409H14.2875V15.309H8.57505V17.209H18.1ZM8.57505 28.6465H10.475V30.5465H8.57505V28.6465ZM6.66255 32.459H8.57505V34.359H6.66255V32.459ZM6.66255 22.934H8.57505V28.6465H6.66255V22.934ZM6.66255 17.209H8.57505V19.1215H6.66255V17.209ZM4.76255 30.5465H6.66255V32.459H4.76255V30.5465ZM4.76255 19.1215H6.66255V21.0215H4.76255V19.1215ZM2.86255 21.0215H4.76255V30.5465H2.86255V21.0215Z" fill="#474164"/>
</svg>
