<svg width="40" height="41" viewBox="0 0 40 41" fill="none" xmlns="http://www.w3.org/2000/svg">
<path d="M38.1 10.5527H40V14.3527H38.1V10.5527Z" fill="#474164"/>
<path d="M34.2875 18.1653H36.1875V25.7903H22.8625V27.6965H24.7626V29.5965H22.8625V31.509H36.1875V35.3215H38.1V14.3528H34.2875V18.1653ZM28.5751 29.5903H26.6625V27.6965H28.5751V29.5903ZM36.1875 29.5903H32.375V27.6965H36.1875V29.5903Z" fill="#474164"/>
<path d="M36.1875 12.4526V10.5526H38.1V8.64014H34.2875V10.5526H32.375V14.3526H34.2875V12.4526H36.1875Z" fill="#474164"/>
<path d="M20.95 35.3153V33.4028H19.05V35.3153H3.8125V37.2153H36.1875V35.3153H20.95Z" fill="#474164"/>
<path d="M26.6625 20.0653V21.9778H28.575V23.8778H30.475V21.9778H32.375V20.0653H34.2874V18.1653H32.375V16.2653H30.475V14.3528H28.575V16.2653H26.6625V18.1653H24.7625V20.0653H26.6625Z" fill="#474164"/>
<path d="M22.8625 16.2651H24.7626V18.1651H22.8625V16.2651Z" fill="#474164"/>
<path d="M22.8625 4.82764H24.7626V10.5526H22.8625V4.82764Z" fill="#474164"/>
<path d="M20.95 31.5027H22.8624V33.4027H20.95V31.5027Z" fill="#474164"/>
<path d="M20.95 23.8777H22.8624V25.7902H20.95V23.8777Z" fill="#474164"/>
<path d="M20.95 14.3528H22.8624V16.2653H20.95V14.3528Z" fill="#474164"/>
<path d="M19.05 27.6902H20.9501V29.5902H19.05V27.6902Z" fill="#474164"/>
<path d="M19.05 21.9778H20.9501V23.8778H19.05V21.9778Z" fill="#474164"/>
<path d="M20.95 12.4527H22.8624V10.5527H17.1375V12.4527H19.0499V14.3527H20.95V12.4527Z" fill="#474164"/>
<path d="M19.05 6.74023H20.9501V8.64023H19.05V6.74023Z" fill="#474164"/>
<path d="M17.1375 2.92773H22.8624V4.82773H17.1375V2.92773Z" fill="#474164"/>
<path d="M17.1375 31.5027H19.0499V33.4027H17.1375V31.5027Z" fill="#474164"/>
<path d="M17.1375 23.8777H19.0499V25.7902H17.1375V23.8777Z" fill="#474164"/>
<path d="M17.1375 14.3528H19.0499V16.2653H17.1375V14.3528Z" fill="#474164"/>
<path d="M15.2375 16.2651H17.1375V18.1651H15.2375V16.2651Z" fill="#474164"/>
<path d="M15.2375 4.82764H17.1375V10.5526H15.2375V4.82764Z" fill="#474164"/>
<path d="M7.62502 20.0653V21.9778H9.52502V23.8778H11.425V21.9778H13.3375V20.0653H15.2375V18.1653H13.3375V16.2653H11.425V14.3528H9.52502V16.2653H7.62502V18.1653H5.71252V20.0653H7.62502Z" fill="#474164"/>
<path d="M3.81252 12.4526H5.71252V14.3526H7.62502V10.5526H5.71252V8.64014H1.90002V10.5526H3.81252V12.4526Z" fill="#474164"/>
<path d="M17.1375 31.5026V29.5901H15.2375V27.6964H17.1375V25.7964H3.81252V18.1714H5.71252V14.3589H1.90002V35.3214H3.81252V31.5089L17.1375 31.5026ZM11.425 27.6964H13.3375V29.5964H11.425V27.6964ZM3.81252 27.6964H7.62502V29.5964H3.81252V27.6964Z" fill="#474164"/>
<path d="M0 10.5527H1.9V14.3527H0V10.5527Z" fill="#474164"/>
</svg>
