<svg width="40" height="40" viewBox="0 0 40 40" fill="none" xmlns="http://www.w3.org/2000/svg">
<path d="M38.0875 26.6624H40V28.5749H38.0875V26.6624ZM38.0875 17.1499H30.475V9.5249H32.375V7.6249H30.475V5.7124H9.525V7.6249H7.6125V9.5249H5.7125V11.4249H3.8125V13.3374H1.9V15.2374H0V20.9499H1.9V19.0499H11.425V22.8624H13.325V26.6624H15.2375V30.4749H17.1375V34.2874H19.05V19.0499H26.6625V22.8624H24.7625V26.6624H22.85V30.4749H20.95V34.2874H19.05V36.1874H17.1375V38.0999H19.05V39.9999H20.95V38.0999H22.85V36.1874H24.7625V34.2874H26.6625V32.3874H28.575V30.4749H30.475V28.5749H32.375V26.6624H34.2875V24.7624H36.1875V22.8624H38.0875V20.9499H40V15.2374H38.0875V17.1499ZM26.6625 17.1499H13.325V15.2374H11.425V7.6249H19.05V9.5249H20.95V11.4249H22.85V13.3374H24.7625V15.2374H26.6625V17.1499ZM36.1875 32.3874H38.0875V34.2874H36.1875V32.3874Z" fill="#474164"/>
<path d="M36.1875 13.3375H38.0875V15.2375H36.1875V13.3375ZM34.2875 34.2875H36.1875V36.1875H34.2875V34.2875ZM34.2875 30.475H36.1875V32.3875H34.2875V30.475ZM34.2875 11.425H36.1875V13.3375H34.2875V11.425ZM34.2875 3.8125H32.375V5.7125H34.2875V7.625H36.1875V5.7125H38.0875V3.8125H36.1875V1.9H34.2875V3.8125ZM32.375 32.3875H34.2875V34.2875H32.375V32.3875ZM32.375 9.525H34.2875V11.425H32.375V9.525ZM28.575 38.1H30.475V40H28.575V38.1ZM28.575 0H30.475V1.9H28.575V0ZM17.1375 9.525H19.05V11.425H17.1375V9.525ZM17.1375 1.9H19.05V3.8125H17.1375V1.9ZM15.2375 34.2875H17.1375V36.1875H15.2375V34.2875ZM15.2375 11.425H17.1375V13.3375H15.2375V11.425ZM13.325 32.3875H15.2375V34.2875H13.325V32.3875ZM13.325 13.3375H15.2375V15.2375H13.325V13.3375ZM11.425 36.1875H13.325V38.1H11.425V36.1875ZM11.425 30.475H13.325V32.3875H11.425V30.475ZM9.525 28.575H11.425V30.475H9.525V28.575ZM7.6125 26.6625H9.525V28.575H7.6125V26.6625ZM5.7125 24.7625H7.6125V26.6625H5.7125V24.7625ZM5.7125 3.8125H7.6125V5.7125H5.7125V3.8125ZM3.8125 30.475V32.3875H1.9V34.2875H3.8125V36.1875H5.7125V34.2875H7.6125V32.3875H5.7125V30.475H3.8125ZM3.8125 22.8625H5.7125V24.7625H3.8125V22.8625ZM3.8125 5.7125H5.7125V7.625H3.8125V5.7125ZM3.8125 1.9H5.7125V3.8125H3.8125V1.9ZM1.9 20.95H3.8125V22.8625H1.9V20.95ZM1.9 3.8125H3.8125V5.7125H1.9V3.8125ZM0 26.6625H1.9V28.575H0V26.6625Z" fill="#474164"/>
</svg>
