<svg width="40" height="40" viewBox="0 0 40 40" fill="none" xmlns="http://www.w3.org/2000/svg">
<path d="M38.0875 3.8124H40V38.0999H38.0875V3.8124ZM36.1875 1.8999H38.0875V3.8124H36.1875V1.8999ZM34.2875 20.9499H32.375V38.0999H7.61252V20.9499H5.71252V38.0999H1.90002V39.9999H38.0875V38.0999H34.2875V20.9499ZM22.85 11.4249H30.475V3.8124H22.85V11.4249ZM24.7625 5.7124H26.6625V9.5249H24.7625V5.7124Z" fill="#474164"/>
<path d="M11.425 32.375H28.5625V34.2875H11.425V32.375ZM11.425 26.6625H28.5625V28.575H11.425V26.6625ZM7.6125 19.05H32.375V20.95H7.6125V19.05ZM5.7125 11.425H7.6125V1.9H11.425V11.425H7.6125V13.3375H11.425V15.2375H34.2875V1.9H36.1875V0H3.8125V1.9H5.7125V11.425ZM13.325 1.9H32.375V13.3375H13.325V1.9ZM1.9 1.9H3.8125V3.8125H1.9V1.9ZM0 3.8125H1.9V38.1H0V3.8125Z" fill="#474164"/>
</svg>
