<svg width="40" height="41" viewBox="0 0 40 41" fill="none" xmlns="http://www.w3.org/2000/svg">
<path d="M38.1 25.7839H40V27.6839H38.1V25.7839Z" fill="#474164"/>
<path d="M9.52498 27.684V21.9715H7.62498V4.83398H5.72498V6.73398H1.91248V8.64648H3.81248V21.9715H5.72498V27.684H7.62498V29.5965H9.52498V31.4965H26.675V33.409H28.575V29.5965H32.3875V37.209H34.2875V29.5965H38.1V27.684H9.52498Z" fill="#474164"/>
<path d="M34.2875 23.884H38.1V25.784H34.2875V23.884Z" fill="#474164"/>
<path d="M32.3875 4.83398H34.2874V23.884H32.3875V4.83398Z" fill="#474164"/>
<path d="M7.625 37.209H32.3875V39.1215H7.625V37.209Z" fill="#474164"/>
<path d="M26.675 10.5464H28.5751V14.3589H26.675V10.5464Z" fill="#474164"/>
<path d="M24.7625 14.3589H26.6749V16.2589H24.7625V14.3589Z" fill="#474164"/>
<path d="M22.8625 8.64648H26.675V10.5465H22.8625V8.64648Z" fill="#474164"/>
<path d="M22.8625 23.884H26.675V25.784H22.8625V23.884Z" fill="#474164"/>
<path d="M22.8625 16.259H24.7626V18.1715H22.8625V16.259Z" fill="#474164"/>
<path d="M20.9625 21.9714H22.8625V23.8839H20.9625V21.9714Z" fill="#474164"/>
<path d="M20.9625 18.1714H22.8625V20.0714H20.9625V18.1714Z" fill="#474164"/>
<path d="M20.9625 10.5464H22.8625V12.4464H20.9625V10.5464Z" fill="#474164"/>
<path d="M19.05 20.0715H20.9625V21.9715H19.05V20.0715Z" fill="#474164"/>
<path d="M19.05 12.4465H20.9625V14.359H19.05V12.4465Z" fill="#474164"/>
<path d="M17.15 18.1714H19.05V20.0714H17.15V18.1714Z" fill="#474164"/>
<path d="M17.15 10.5464H19.05V12.4464H17.15V10.5464Z" fill="#474164"/>
<path d="M15.25 21.9714H19.05V23.8839H15.25V21.9714Z" fill="#474164"/>
<path d="M15.25 16.259H17.15V18.1715H15.25V16.259Z" fill="#474164"/>
<path d="M13.3375 8.64648H17.15V10.5465H13.3375V8.64648Z" fill="#474164"/>
<path d="M13.3375 14.3589H15.25V16.2589H13.3375V14.3589Z" fill="#474164"/>
<path d="M11.4375 10.5464H13.3375V14.3589H11.4375V10.5464Z" fill="#474164"/>
<path d="M13.3375 4.83398V6.73398H26.675V4.83398H32.3875V2.92148H26.675V1.02148H13.3375V2.92148H7.625V4.83398H13.3375Z" fill="#474164"/>
<path d="M26.675 35.3089V33.4089H1.91248V35.3089H5.72498V37.2089H7.62498V35.3089H26.675Z" fill="#474164"/>
<path d="M0 8.64648H1.9125V33.409H0V8.64648Z" fill="#474164"/>
</svg>
