<svg width="40" height="40" viewBox="0 0 40 40" fill="none" xmlns="http://www.w3.org/2000/svg">
<path d="M32.3812 29.5188H30.4812V31.4313H28.5687V33.3313H26.6687V35.2438H24.7562V37.1438H30.4812V35.2438H32.3812V33.3313H34.2812V27.6188H32.3812V29.5188ZM30.4812 16.1938H32.3812V0.956299H28.5687V2.8563H30.4812V16.1938ZM28.5687 16.1938H30.4812V18.0938H28.5687V16.1938ZM26.6687 2.8563H28.5687V4.7688H26.6687V2.8563Z" fill="#474164"/>
<path d="M26.6687 33.3313V31.4313H28.5687V29.5188H30.4812V27.6188H32.3812V25.7188H26.6687V27.6188H24.7562V29.5188H22.8562V35.2438H24.7562V33.3313H26.6687ZM24.7562 18.0938H28.5687V20.0063H24.7562V18.0938ZM24.7562 4.7688H26.6687V6.6688H24.7562V4.7688Z" fill="#474164"/>
<path d="M24.7563 20.0063H15.2438V21.9063H19.0438V39.0438H20.9563V21.9063H24.7563V20.0063ZM22.8563 2.8563H24.7563V4.7688H22.8563V2.8563ZM17.1438 0.956299H22.8563V2.8563H17.1438V0.956299ZM15.2438 2.8563H17.1438V4.7688H15.2438V2.8563Z" fill="#474164"/>
<path d="M15.2437 27.6188H13.3313V25.7188H7.61875V27.6188H9.51875V29.5188H11.4313V31.4313H13.3313V33.3313H15.2437V35.2438H17.1438V29.5188H15.2437V27.6188ZM11.4313 18.0938H15.2437V20.0063H11.4313V18.0938ZM13.3313 4.7688H15.2437V6.6688H13.3313V4.7688ZM13.3313 33.3313H11.4313V31.4313H9.51875V29.5188H7.61875V27.6188H5.71875V33.3313H7.61875V35.2438H9.51875V37.1438H15.2437V35.2438H13.3313V33.3313ZM11.4313 2.8563H13.3313V4.7688H11.4313V2.8563ZM9.51875 16.1938H11.4313V18.0938H9.51875V16.1938ZM9.51875 2.8563H11.4313V0.956299H7.61875V16.1938H9.51875V2.8563Z" fill="#474164"/>
</svg>
