<svg width="40" height="41" viewBox="0 0 40 41" fill="none" xmlns="http://www.w3.org/2000/svg">
<path d="M33.325 16.259V18.159H35.2374V29.5965H33.325V31.4965H37.1375V18.159H39.0499V12.4465H37.1375V16.259H33.325Z" fill="#474164"/>
<path d="M35.2374 2.92139H37.1374V8.64639H35.2374V2.92139Z" fill="#474164"/>
<path d="M2.84998 10.5465V12.4465H6.66248V10.5465H12.375V12.4465H6.66248V14.359H8.57498V18.159H6.66248V20.0715H8.57498V31.4965H6.66248V33.409H10.475V35.309H14.2875V23.884H18.0875V21.9715H14.2875V18.159H18.0875V16.259H14.2875V14.359H25.7125V16.259H21.9V18.159H25.7125V21.9715H21.9V23.884H25.7125V33.409H23.8125V35.309H21.9V37.209H25.7125V35.309H29.525V33.409H33.325V31.4965H31.425V20.0715H33.325V18.159H31.425V14.359H33.325V12.4465H27.6125V10.5465H33.325V12.4465H37.1375V10.5465H35.2375V8.64648H33.325V4.83398H29.525V6.73398H25.7125V8.64648H23.8125V4.83398H21.9V8.64648H18.0875V4.83398H16.1875V10.5465H14.2875V6.73398H10.475V4.83398H6.66248V8.64648H4.76248V10.5465H2.84998ZM18.0875 10.5465H21.9V12.4465H18.0875V10.5465Z" fill="#474164"/>
<path d="M27.6124 1.02148H35.2374V2.92148H27.6124V1.02148Z" fill="#474164"/>
<path d="M23.8125 2.92139H27.6125V4.83389H23.8125V2.92139Z" fill="#474164"/>
<path d="M18.0874 2.92139H21.8999V4.83389H18.0874V2.92139Z" fill="#474164"/>
<path d="M18.0874 37.209H21.8999V39.1215H18.0874V37.209Z" fill="#474164"/>
<path d="M18.0874 23.884H21.8999V25.784H18.0874V23.884Z" fill="#474164"/>
<path d="M18.0874 18.1589H21.8999V20.0714H18.0874V18.1589Z" fill="#474164"/>
<path d="M14.2875 35.3091H18.0875V37.2091H14.2875V35.3091Z" fill="#474164"/>
<path d="M12.375 2.92139H16.1875V4.83389H12.375V2.92139Z" fill="#474164"/>
<path d="M4.76245 1.02148H12.375V2.92148H4.76245V1.02148Z" fill="#474164"/>
<path d="M4.76245 29.5965V18.159H6.66245V16.259H2.84995V12.4465H0.949951V18.159H2.84995V31.4965H6.66245V29.5965H4.76245Z" fill="#474164"/>
<path d="M2.84998 2.92139H4.76248V8.64639H2.84998V2.92139Z" fill="#474164"/>
</svg>
