<svg width="40" height="41" viewBox="0 0 40 41" fill="none" xmlns="http://www.w3.org/2000/svg">
<path d="M15 3.40479H8.33329V6.73812H4.99996V10.0715H1.66663V20.0715H4.99996V23.4048H8.33329V26.7381H11.6666V30.0715H15V33.4048H18.3333V36.7381H21.6666V33.4048H25V30.0715H28.3333V26.7381H31.6666V23.4048H35V20.0715H38.3333V10.0715H35V6.73812H31.6666V3.40479H25V6.73812H21.6666V10.0715H18.3333V6.73812H15V3.40479ZM15 6.73812V10.0715H18.3333V13.4048H21.6666V10.0715H25V6.73812H31.6666V10.0715H35V20.0715H31.6666V23.4048H28.3333V26.7381H25V30.0715H21.6666V33.4048H18.3333V30.0715H15V26.7381H11.6666V23.4048H8.33329V20.0715H4.99996V10.0715H8.33329V6.73812H15Z" fill="#474164"/>
</svg>
