<svg width="37" height="34" viewBox="0 0 37 34" fill="none" xmlns="http://www.w3.org/2000/svg">
<path d="M16.6667 30.4048H10V27.0715H6.66667V23.7381H10V20.4048H3.33333V30.4048H6.66667V33.7381H16.6667V30.4048ZM16.6667 30.4048H20V23.7381H23.3333V20.4048H26.6667V17.0715H23.3333V13.7381H13.3333V17.0715H10V20.4048H13.3333V23.7381H16.6667V30.4048ZM0 20.4048H3.33333V13.7381H6.66667V10.4048H10V13.7381H13.3333V3.73812H10V7.07145H3.33333V10.4048H0V20.4048ZM16.6667 20.4048V17.0715H20V20.4048H16.6667ZM20 33.7381H30V30.4048H33.3333V20.4048H26.6667V23.7381H30V27.0715H26.6667V30.4048H20V33.7381ZM13.3333 3.73812H16.6667V0.404785H13.3333V3.73812ZM16.6667 7.07145H20V3.73812H16.6667V7.07145ZM33.3333 20.4048H36.6667V10.4048H33.3333V7.07145H26.6667V3.73812H23.3333V13.7381H26.6667V10.4048H30V13.7381H33.3333V20.4048ZM20 3.73812H23.3333V0.404785H20V3.73812Z" fill="#474164"/>
</svg>
