<svg xmlns="http://www.w3.org/2000/svg" viewBox="0 0 24 24" id="Coding-Apps-Websites-Dinosaur-Error--Streamline-Pixel" height="24" width="24">
  <desc>
    Coding Apps Websites Dinosaur Error Streamline Icon: https://streamlinehq.com
  </desc>
  <title>coding-apps-websites-dinosaur-error</title>
  <g>
    <path d="M22.86 18.85875H24v1.1400000000000001h-1.1400000000000001Z" fill="#000000" stroke-width="0.75"></path>
    <path d="m24 10.85625 0 -2.2874999999999996 -1.1400000000000001 0 0 1.1475 -1.1475 0 0 -2.2874999999999996 -1.1400000000000001 0 0 4.574999999999999 -1.1475 0 0 -1.1475 -1.1400000000000001 0 0 2.2874999999999996 2.2874999999999996 0 0 3.4275 -5.715 0 0 1.1475 9.1425 0 0 -1.1475 -2.2874999999999996 0 0 -5.715 2.2874999999999996 0z" fill="#000000" stroke-width="0.75"></path>
    <path d="M21.7125 0.57375H24v1.1400000000000001h-2.2874999999999996Z" fill="#000000" stroke-width="0.75"></path>
    <path d="M19.424999999999997 18.85875h1.1475v1.1400000000000001H19.424999999999997Z" fill="#000000" stroke-width="0.75"></path>
    <path d="M18.285 2.86125h2.2874999999999996v1.1400000000000001h-2.2874999999999996Z" fill="#000000" stroke-width="0.75"></path>
    <path d="M14.857499999999998 18.85875h1.1400000000000001v1.1400000000000001h-1.1400000000000001Z" fill="#000000" stroke-width="0.75"></path>
    <path d="m14.857499999999998 7.428749999999999 -3.4275 0 0 1.1400000000000001 3.4275 0 0 1.1475 1.1400000000000001 0 0 -5.715 -1.1400000000000001 0 0 3.4275z" fill="#000000" stroke-width="0.75"></path>
    <path d="M10.2825 12.00375h-2.2800000000000002v1.1400000000000001h2.2800000000000002v1.1400000000000001h-2.2800000000000002v-1.1400000000000001H6.855v4.574999999999999h3.4275v1.1400000000000001H6.855v1.1400000000000001H3.4275V21.15H4.574999999999999v2.2800000000000002h2.2800000000000002v-1.1400000000000001H5.715V21.15h3.4275v-1.1475h1.1400000000000001v1.1475h2.2874999999999996v-1.1475h-1.1400000000000001v-4.5675h1.1400000000000001v1.1400000000000001h1.1475v-2.2874999999999996h-2.2874999999999996v-3.4275h3.4275v-1.1400000000000001h-4.574999999999999Zm0 4.5675h-2.2800000000000002v-1.1400000000000001h2.2800000000000002Z" fill="#000000" stroke-width="0.75"></path>
    <path d="M8.0025 0.57375h2.2800000000000002v1.1400000000000001h-2.2800000000000002Z" fill="#000000" stroke-width="0.75"></path>
    <path d="M6.855 5.14125h1.1475v2.2874999999999996H6.855Z" fill="#000000" stroke-width="0.75"></path>
    <path d="M5.715 2.86125h9.1425v1.1400000000000001H5.715Z" fill="#000000" stroke-width="0.75"></path>
    <path d="M5.715 17.71875h1.1400000000000001v1.1400000000000001H5.715Z" fill="#000000" stroke-width="0.75"></path>
    <path d="M4.574999999999999 4.00125h1.1400000000000001v8.0025H4.574999999999999Z" fill="#000000" stroke-width="0.75"></path>
    <path d="M3.4275 12.00375H4.574999999999999v3.4275H3.4275Z" fill="#000000" stroke-width="0.75"></path>
    <path d="M2.2874999999999996 18.85875h1.1400000000000001v1.1400000000000001H2.2874999999999996Z" fill="#000000" stroke-width="0.75"></path>
    <path d="M2.2874999999999996 15.431249999999999h1.1400000000000001v1.1400000000000001H2.2874999999999996Z" fill="#000000" stroke-width="0.75"></path>
    <path d="M1.1400000000000001 17.71875h1.1475v1.1400000000000001H1.1400000000000001Z" fill="#000000" stroke-width="0.75"></path>
    <path d="M0 4.00125h2.2874999999999996v1.1400000000000001H0Z" fill="#000000" stroke-width="0.75"></path>
    <path d="m1.1400000000000001 15.431249999999999 1.1475 0 0 -1.1475 -1.1475 0 0 -1.1400000000000001 -1.1400000000000001 0 0 4.574999999999999 1.1400000000000001 0 0 -2.2874999999999996z" fill="#000000" stroke-width="0.75"></path>
  </g>
</svg>