<svg width="16" height="17" viewBox="0 0 16 17" fill="none" xmlns="http://www.w3.org/2000/svg"
  preserveAspectRatio="xMidYMid meet">
  <path
    d="M15.2377 11.93H12.9527V11.165H13.7127V10.405H2.2877V11.165H3.0502V11.93H0.762695V16.5H15.2377V11.93ZM3.8077 11.165H12.1877V11.93H3.8077V11.165ZM14.4777 15.74H1.5227V12.69H14.4777V15.74ZM13.7127 1.26001H14.4777V10.405H13.7127V1.26001Z"
    fill="#FFD1D1" />
  <path
    d="M9.14277 13.4501H12.9528V14.2151H9.14277V13.4501ZM9.14277 5.83506H9.90277V6.59506H9.14277V5.83506ZM9.14277 4.31006H9.90277V5.07006H9.14277V4.31006ZM6.85777 6.59506H9.14277V7.35506H6.85777V6.59506ZM6.09277 5.83506H6.85777V6.59506H6.09277V5.83506ZM6.09277 4.31006H6.85777V5.07006H6.09277V4.31006Z"
    fill="#FFD1D1" />
  <path
    d="M3.04996 9.645H12.955V2.025H3.04996V9.645ZM3.80746 2.785H12.1875V8.88H3.80746V2.785ZM3.04746 13.45H4.57246V14.975H3.04746V13.45ZM2.28746 0.5H13.7125V1.26H2.28746V0.5ZM1.52246 1.26H2.28746V10.405H1.52246V1.26Z"
    fill="#FFD1D1" />
</svg>