<svg width="17" height="17" viewBox="0 0 17 17" fill="none" xmlns="http://www.w3.org/2000/svg"
  className="w-[15.5px] h-[16.13px]" preserveAspectRatio="none">
  <path fill-rule="evenodd" clip-rule="evenodd"
    d="M6.28951 0.763575C3.76379 0.9588 1.61631 1.12962 1.5187 1.14182C1.23806 1.20283 0.98183 1.38585 0.859814 1.64209L0.75 1.86172L0.762202 7.1572L0.774403 12.4527L0.933024 12.7821C1.03064 12.9651 1.64071 13.8193 2.3118 14.6856C3.64177 16.4182 3.73938 16.5036 4.23965 16.5646C4.38607 16.5768 5.49641 16.528 6.67996 16.4548C7.87572 16.3816 9.80357 16.2596 10.9505 16.1986C15.8677 15.8935 15.6115 15.9179 15.9044 15.6739C16.2582 15.3811 16.2216 15.8691 16.246 9.42669C16.2582 3.97259 16.246 3.60654 16.1606 3.44792C16.0752 3.25269 15.9044 3.13068 13.6593 1.55668C12.1585 0.49514 12.0487 0.446334 11.3776 0.434132C11.0969 0.421931 8.80304 0.580551 6.28951 0.763575Z"
    fill="white" />
  <path fill-rule="evenodd" clip-rule="evenodd"
    d="M6.28951 0.763575C3.76379 0.9588 1.61631 1.12962 1.5187 1.14182C1.23806 1.20283 0.98183 1.38585 0.859814 1.64209L0.75 1.86172L0.762202 7.1572L0.774403 12.4527L0.933024 12.7821C1.03064 12.9651 1.64071 13.8193 2.3118 14.6856C3.64177 16.4182 3.73938 16.5036 4.23965 16.5646C4.38607 16.5768 5.49641 16.528 6.67996 16.4548C7.87572 16.3816 9.80357 16.2596 10.9505 16.1986C15.8677 15.8935 15.6115 15.9179 15.9044 15.6739C16.2582 15.3811 16.2216 15.8691 16.246 9.42669C16.2582 3.97259 16.246 3.60654 16.1606 3.44792C16.0752 3.25269 15.9044 3.13068 13.6593 1.55668C12.1585 0.49514 12.0487 0.446334 11.3776 0.434132C11.0969 0.421931 8.80304 0.580551 6.28951 0.763575ZM11.9632 1.45906C12.1829 1.55668 13.7325 2.63041 13.9521 2.83784C14.0131 2.89885 14.0375 2.95986 14.0009 2.98426C13.9399 3.04527 4.33726 3.61874 4.05663 3.56994C3.93461 3.55773 3.75159 3.48452 3.64177 3.41132C3.20252 3.10628 2.11658 2.21556 2.11658 2.15455C2.11658 1.98373 2.07997 1.98373 6.35052 1.66649C7.16803 1.61768 8.5224 1.52007 9.3399 1.44686C11.1091 1.31265 11.6338 1.31265 11.9632 1.45906ZM15.0136 4.21662C15.0868 4.28983 15.1479 4.42405 15.1723 4.55826C15.1845 4.68028 15.1967 6.94977 15.1845 9.58531C15.1723 14.0999 15.1601 14.3927 15.0746 14.5147C15.0258 14.6002 14.9282 14.6856 14.8428 14.71C14.6354 14.7954 4.58129 15.3689 4.37387 15.3078C4.27625 15.2834 4.14204 15.198 4.08103 15.1248L3.95901 15.0028L3.94681 10.1222C3.93461 6.69354 3.94681 5.18054 3.98342 5.04633C4.00782 4.94871 4.09323 4.8267 4.15424 4.77789C4.23965 4.71688 4.83753 4.66808 6.88739 4.54606C8.32718 4.47285 10.5601 4.33863 11.829 4.25322C14.8794 4.0702 14.8672 4.0702 15.0136 4.21662Z"
    fill="black" />
  <path fill-rule="evenodd" clip-rule="evenodd"
    d="M12.3168 5.88825C11.7678 5.92485 11.2797 5.97366 11.2309 6.01026C11.0601 6.09567 10.9625 6.24209 10.9381 6.40071C10.9259 6.55933 10.9747 6.58374 11.5237 6.65695L11.7556 6.68135V8.84103C11.7556 10.1222 11.7434 10.9641 11.7068 10.9397C11.6824 10.9153 10.9747 9.81715 10.1206 8.52379C9.26644 7.20602 8.55875 6.13228 8.54655 6.13228C8.53435 6.12008 7.98528 6.14448 7.31419 6.19329C6.49669 6.24209 6.04523 6.3031 5.95982 6.35191C5.8134 6.42512 5.64258 6.69355 5.64258 6.86437C5.64258 6.97419 5.8378 7.0352 6.24046 7.0352H6.46008V13.2336L6.10624 13.3434C5.85 13.4166 5.75239 13.4654 5.70359 13.5752C5.63038 13.7461 5.63038 13.8925 5.71579 13.8925C5.74019 13.8925 6.31366 13.8681 6.97255 13.8193C8.26592 13.7461 8.41233 13.7095 8.54655 13.441C8.59536 13.3678 8.63196 13.2824 8.63196 13.2458C8.63196 13.2336 8.44894 13.1726 8.24151 13.1238C8.02188 13.075 7.80226 13.014 7.75345 13.014C7.66804 12.9896 7.66804 12.8309 7.66804 10.6591V8.32856L9.20544 10.7323C10.816 13.258 11.0113 13.5508 11.2675 13.6728C11.5725 13.8315 12.3534 13.7217 12.7439 13.4654L12.8659 13.3922L12.8781 9.95137L12.8903 6.49833L13.1587 6.44952C13.476 6.38851 13.6224 6.24209 13.6224 5.98586C13.6224 5.82724 13.6102 5.81504 13.4638 5.82724C13.3784 5.82724 12.8537 5.86385 12.3168 5.88825Z"
    fill="black" />
</svg>